<svg width="1280" height="720" xmlns="http://www.w3.org/2000/svg" xmlns:xlink="http://www.w3.org/1999/xlink" overflow="hidden"><defs><clipPath id="clip0"><rect x="0" y="0" width="1280" height="720"/></clipPath></defs><g clip-path="url(#clip0)"><rect x="0" y="0" width="1280" height="720" fill="#FFFFFF"/><path d="M86.5001 261C86.5001 255.753 90.7535 251.5 96.0003 251.5L191 251.5C196.247 251.5 200.5 255.753 200.5 261L200.5 299C200.5 304.247 196.247 308.5 191 308.5L96.0003 308.5C90.7535 308.5 86.5001 304.247 86.5001 299Z" stroke="#ED7D31" stroke-width="1.33333" stroke-miterlimit="8" fill="#FFFFFF" fill-rule="evenodd"/><text fill="#ED7D31" font-family="Calibri,Calibri_MSFontService,sans-serif" font-weight="400" font-size="13" transform="translate(120.685 276)">usbcdc<tspan font-size="13" x="37.5" y="0">::</tspan><tspan font-size="13" x="9.91334" y="16">read</tspan></text><path d="M238.5 411.5C238.5 380.02 263.796 354.5 295 354.5 326.204 354.5 351.5 380.02 351.5 411.5 351.5 442.98 326.204 468.5 295 468.5 263.796 468.5 238.5 442.98 238.5 411.5Z" stroke="#000000" stroke-width="1.33333" stroke-miterlimit="8" stroke-dasharray="5.33333 4" fill="#FFFFFF" fill-rule="evenodd"/><text font-family="Calibri,Calibri_MSFontService,sans-serif" font-weight="400" font-size="13" transform="translate(259.761 407)">LooseEvent<tspan font-size="13" x="62.1667" y="0">::</tspan><tspan font-size="13" x="9.74667" y="16">_</tspan><tspan font-size="13" x="16.4133" y="16">callback</tspan></text><path d="M523.5 596C523.5 564.796 548.796 539.5 580 539.5 611.204 539.5 636.5 564.796 636.5 596 636.5 627.204 611.204 652.5 580 652.5 548.796 652.5 523.5 627.204 523.5 596Z" stroke="#000000" stroke-width="1.33333" stroke-miterlimit="8" stroke-dasharray="5.33333 4" fill="#FFFFFF" fill-rule="evenodd"/><text font-family="Calibri,Calibri_MSFontService,sans-serif" font-weight="400" font-size="13" transform="translate(547.436 591)">HarpEvent<tspan font-size="13" x="57" y="0">::</tspan><tspan font-size="13" x="7.16669" y="16">_</tspan><tspan font-size="13" x="13.8333" y="16">callback</tspan></text><path d="M238.5 149C238.5 117.796 263.796 92.5001 295 92.5001 326.204 92.5001 351.5 117.796 351.5 149 351.5 180.204 326.204 205.5 295 205.5 263.796 205.5 238.5 180.204 238.5 149Z" stroke="#000000" stroke-width="1.33333" stroke-miterlimit="8" fill="#FFFFFF" fill-rule="evenodd"/><text font-family="Calibri,Calibri_MSFontService,sans-serif" font-weight="400" font-size="13" transform="translate(259.928 144)">HarpDevice<tspan font-size="13" x="62.5" y="0">::</tspan><tspan font-size="13" x="4.08002" y="16">_</tspan><tspan font-size="13" x="10.7467" y="16">blink_task</tspan></text><path d="M238.5 280C238.5 248.796 263.796 223.5 295 223.5 326.204 223.5 351.5 248.796 351.5 280 351.5 311.204 326.204 336.5 295 336.5 263.796 336.5 238.5 311.204 238.5 280Z" stroke="#000000" stroke-width="1.33333" stroke-miterlimit="8" fill="#FFFFFF" fill-rule="evenodd"/><text font-family="Calibri,Calibri_MSFontService,sans-serif" font-weight="400" font-size="13" transform="translate(259.931 276)">HarpDevice<tspan font-size="13" x="62.5" y="0">::</tspan><tspan font-size="13" x="-1.92001" y="16">_</tspan><tspan font-size="13" x="4.74664" y="16">stream_task</tspan></text><path d="M674.5 311.834C674.5 306.679 678.679 302.5 683.833 302.5L779.167 302.5C784.321 302.5 788.5 306.679 788.5 311.834L788.5 349.167C788.5 354.321 784.321 358.5 779.167 358.5L683.833 358.5C678.679 358.5 674.5 354.321 674.5 349.167Z" stroke="#000000" stroke-width="1.33333" stroke-miterlimit="8" fill="#FFFFFF" fill-rule="evenodd"/><text font-family="Calibri,Calibri_MSFontService,sans-serif" font-weight="400" font-size="13" transform="translate(692.21 326)">HarpRegister::<tspan font-size="13" x="26.4133" y="16">read</tspan></text><path d="M429.5 81.0003C429.5 75.7534 433.753 71.5001 439 71.5001L533 71.5001C538.247 71.5001 542.5 75.7534 542.5 81.0003L542.5 119C542.5 124.247 538.247 128.5 533 128.5L439 128.5C433.753 128.5 429.5 124.247 429.5 119Z" stroke="#000000" stroke-width="1.33333" stroke-miterlimit="8" fill="#FFFFFF" fill-rule="evenodd"/><text font-family="Calibri,Calibri_MSFontService,sans-serif" font-weight="400" font-size="13" transform="translate(446.54 96)">HarpRegister<tspan font-size="13" x="70.5" y="0">::</tspan><tspan font-size="13" x="24.58" y="16">write</tspan></text><path d="M674.5 235C674.5 229.753 678.753 225.5 684 225.5L779 225.5C784.247 225.5 788.5 229.753 788.5 235L788.5 273C788.5 278.247 784.247 282.5 779 282.5L684 282.5C678.753 282.5 674.5 278.247 674.5 273Z" stroke="#ED7D31" stroke-width="1.33333" stroke-miterlimit="8" fill="#FFFFFF" fill-rule="evenodd"/><text fill="#ED7D31" font-family="Calibri,Calibri_MSFontService,sans-serif" font-weight="400" font-size="13" transform="translate(703.043 249)">harpsync<tspan font-size="13" x="48.8333" y="0">::</tspan><tspan font-size="13" x="15.58" y="16">read</tspan></text><path d="M998.5 388C998.5 382.753 1002.75 378.5 1008 378.5L1102 378.5C1107.25 378.5 1111.5 382.753 1111.5 388L1111.5 426C1111.5 431.247 1107.25 435.5 1102 435.5L1008 435.5C1002.75 435.5 998.5 431.247 998.5 426Z" stroke="#ED7D31" stroke-width="1.33333" stroke-miterlimit="8" fill="#FFFFFF" fill-rule="evenodd"/><text fill="#ED7D31" font-family="Calibri,Calibri_MSFontService,sans-serif" font-weight="400" font-size="13" transform="translate(1032.39 402)">usbcdc<tspan font-size="13" x="37.5" y="0">::</tspan><tspan font-size="13" x="8.07996" y="16">write</tspan></text><path d="M674.5 388C674.5 382.753 678.753 378.5 684 378.5L778 378.5C783.247 378.5 787.5 382.753 787.5 388L787.5 426C787.5 431.247 783.247 435.5 778 435.5L684 435.5C678.753 435.5 674.5 431.247 674.5 426Z" stroke="#4472C4" stroke-width="1.33333" stroke-miterlimit="8" fill="#FFFFFF" fill-rule="evenodd"/><text fill="#4472C4" font-family="Calibri,Calibri_MSFontService,sans-serif" font-weight="400" font-size="13" transform="translate(696.538 402)">MyRegister<tspan font-size="13" x="61.5" y="0">::</tspan><tspan font-size="13" x="21.9133" y="16">read</tspan><tspan fill="#000000" font-size="19" x="-619.912" y="-364">microharp</tspan><tspan fill="#000000" font-size="19" x="-537.545" y="-364">dataflow</tspan></text><path d="M429.5 158C429.5 152.753 433.753 148.5 439 148.5L533 148.5C538.247 148.5 542.5 152.753 542.5 158L542.5 196C542.5 201.247 538.247 205.5 533 205.5L439 205.5C433.753 205.5 429.5 201.247 429.5 196Z" stroke="#4472C4" stroke-width="1.33333" stroke-miterlimit="8" fill="#FFFFFF" fill-rule="evenodd"/><text fill="#4472C4" font-family="Calibri,Calibri_MSFontService,sans-serif" font-weight="400" font-size="13" transform="translate(451.04 173)">MyRegister<tspan font-size="13" x="61.5" y="0">::</tspan><tspan font-size="13" x="20.08" y="16">write</tspan></text><path d="M561.5 158.834C561.5 153.679 565.679 149.5 570.834 149.5L665.167 149.5C670.321 149.5 674.5 153.679 674.5 158.834L674.5 196.167C674.5 201.321 670.321 205.5 665.167 205.5L570.834 205.5C565.679 205.5 561.5 201.321 561.5 196.167Z" stroke="#4472C4" stroke-width="1.33333" stroke-miterlimit="8" fill="#FFFFFF" fill-rule="evenodd"/><text fill="#4472C4" font-family="Calibri,Calibri_MSFontService,sans-serif" font-weight="400" font-size="13" transform="translate(588.824 173)">MyDriver<tspan font-size="13" x="50.5" y="0">::</tspan><tspan font-size="13" x="14.58" y="16">write</tspan></text><path d="M806.5 388C806.5 382.753 810.753 378.5 816 378.5L911 378.5C916.247 378.5 920.5 382.753 920.5 388L920.5 426C920.5 431.247 916.247 435.5 911 435.5L816 435.5C810.753 435.5 806.5 431.247 806.5 426Z" stroke="#4472C4" stroke-width="1.33333" stroke-miterlimit="8" fill="#FFFFFF" fill-rule="evenodd"/><text fill="#4472C4" font-family="Calibri,Calibri_MSFontService,sans-serif" font-weight="400" font-size="13" transform="translate(834.322 402)">MyDriver<tspan font-size="13" x="50.5" y="0">::</tspan><tspan font-size="13" x="16.4133" y="16">read</tspan></text><path d="M391 90 391 466.746" stroke="#000000" stroke-width="4" stroke-miterlimit="8" fill="none" fill-rule="evenodd"/><path d="M200.5 279.833 231.629 279.833 231.629 281.167 200.5 281.167ZM230.295 276.5 238.295 280.5 230.295 284.5Z" fill="#ED7D31"/><path d="M730.833 377.398 730.833 365.167 732.167 365.167 732.167 377.398ZM727.5 366.5 731.5 358.5 735.5 366.5Z" fill="#4472C4"/><path d="M806.398 407.167 794.167 407.167 794.167 405.833 806.398 405.833ZM795.5 410.5 787.5 406.5 795.5 402.5Z" fill="#4472C4"/><path d="M959 318 959 466.25" stroke="#000000" stroke-width="4" stroke-miterlimit="8" fill="none" fill-rule="evenodd"/><path d="M787.5 329.833 950.912 329.833 950.912 331.167 787.5 331.167ZM949.579 326.5 957.579 330.5 949.579 334.5Z"/><path d="M486.167 129.5 486.167 141.731 484.833 141.731 484.833 129.5ZM489.5 140.398 485.5 148.398 481.5 140.398Z"/><path d="M542.5 176.833 554.731 176.833 554.731 178.167 542.5 178.167ZM553.398 173.5 561.398 177.5 553.398 181.5Z" fill="#4472C4"/><path d="M391.5 99.8334 422.629 99.8335 422.629 101.167 391.5 101.167ZM421.295 96.5001 429.295 100.5 421.295 104.5Z"/><path d="M391.5 329.833 395.5 329.833 395.5 331.167 391.5 331.167ZM396.833 329.833 400.833 329.833 400.833 331.167 396.833 331.167ZM402.167 329.833 406.167 329.833 406.167 331.167 402.167 331.167ZM407.5 329.833 411.5 329.833 411.5 331.167 407.5 331.167ZM412.833 329.833 416.833 329.833 416.833 331.167 412.833 331.167ZM418.167 329.833 422.167 329.833 422.167 331.167 418.167 331.167ZM423.5 329.833 427.5 329.833 427.5 331.167 423.5 331.167ZM428.833 329.833 432.833 329.833 432.833 331.167 428.833 331.167ZM434.167 329.833 438.167 329.833 438.167 331.167 434.167 331.167ZM439.5 329.833 443.5 329.833 443.5 331.167 439.5 331.167ZM444.833 329.833 448.833 329.833 448.833 331.167 444.833 331.167ZM450.167 329.833 454.167 329.833 454.167 331.167 450.167 331.167ZM455.5 329.833 459.5 329.833 459.5 331.167 455.5 331.167ZM460.833 329.833 464.833 329.833 464.833 331.167 460.833 331.167ZM466.167 329.833 470.167 329.833 470.167 331.167 466.167 331.167ZM471.5 329.833 475.5 329.833 475.5 331.167 471.5 331.167ZM476.833 329.833 480.833 329.833 480.833 331.167 476.833 331.167ZM482.167 329.833 486.167 329.833 486.167 331.167 482.167 331.167ZM487.5 329.833 491.5 329.833 491.5 331.167 487.5 331.167ZM492.833 329.833 496.833 329.833 496.833 331.167 492.833 331.167ZM498.167 329.833 502.167 329.833 502.167 331.167 498.167 331.167ZM503.5 329.833 507.5 329.833 507.5 331.167 503.5 331.167ZM508.833 329.833 512.833 329.833 512.833 331.167 508.833 331.167ZM514.167 329.833 518.167 329.833 518.167 331.167 514.167 331.167ZM519.5 329.833 523.5 329.833 523.5 331.167 519.5 331.167ZM524.833 329.833 528.833 329.833 528.833 331.167 524.833 331.167ZM530.167 329.833 534.167 329.833 534.167 331.167 530.167 331.167ZM535.5 329.833 539.5 329.833 539.5 331.167 535.5 331.167ZM540.833 329.833 544.833 329.833 544.833 331.167 540.833 331.167ZM546.167 329.833 550.167 329.833 550.167 331.167 546.167 331.167ZM551.5 329.833 555.5 329.833 555.5 331.167 551.5 331.167ZM556.833 329.833 560.833 329.833 560.833 331.167 556.833 331.167ZM562.167 329.833 566.167 329.833 566.167 331.167 562.167 331.167ZM567.5 329.833 571.5 329.833 571.5 331.167 567.5 331.167ZM572.833 329.833 576.833 329.833 576.833 331.167 572.833 331.167ZM578.167 329.833 582.167 329.833 582.167 331.167 578.167 331.167ZM583.5 329.833 587.5 329.833 587.5 331.167 583.5 331.167ZM588.833 329.833 592.833 329.833 592.833 331.167 588.833 331.167ZM594.167 329.833 598.167 329.833 598.167 331.167 594.167 331.167ZM599.5 329.833 603.5 329.833 603.5 331.167 599.5 331.167ZM604.833 329.833 608.833 329.833 608.833 331.167 604.833 331.167ZM610.167 329.833 614.167 329.833 614.167 331.167 610.167 331.167ZM615.5 329.833 619.5 329.833 619.5 331.167 615.5 331.167ZM620.833 329.833 624.833 329.833 624.833 331.167 620.833 331.167ZM626.167 329.833 630.167 329.833 630.167 331.167 626.167 331.167ZM631.5 329.833 635.5 329.833 635.5 331.167 631.5 331.167ZM636.833 329.833 640.833 329.833 640.833 331.167 636.833 331.167ZM642.167 329.833 646.167 329.833 646.167 331.167 642.167 331.167ZM647.5 329.833 651.5 329.833 651.5 331.167 647.5 331.167ZM652.833 329.833 656.833 329.833 656.833 331.167 652.833 331.167ZM658.167 329.833 662.167 329.833 662.167 331.167 658.167 331.167ZM663.5 329.833 667.5 329.833 667.5 331.167 663.5 331.167ZM666.793 326.5 674.793 330.5 666.793 334.5Z"/><path d="M351.5 279.833 382.629 279.833 382.629 281.167 351.5 281.167ZM381.295 276.5 389.295 280.5 381.295 284.5Z"/><path d="M788.5 253.5 864.921 253.5" stroke="#ED7D31" stroke-width="1.33333" stroke-miterlimit="8" fill="none" fill-rule="evenodd"/><path d="M864.167 253.5 864.167 323.336 862.833 323.336 862.833 253.5ZM867.5 322.003 863.5 330.003 859.5 322.003Z" fill="#ED7D31"/><path d="M960.5 406.833 991.629 406.833 991.629 408.167 960.5 408.167ZM990.295 403.5 998.295 407.5 990.295 411.5Z"/><path d="M674.5 577C674.5 571.753 678.753 567.5 684 567.5L778 567.5C783.247 567.5 787.5 571.753 787.5 577L787.5 615C787.5 620.247 783.247 624.5 778 624.5L684 624.5C678.753 624.5 674.5 620.247 674.5 615Z" stroke="#000000" stroke-width="1.33333" stroke-miterlimit="8" fill="#FFFFFF" fill-rule="evenodd"/><text font-family="Calibri,Calibri_MSFontService,sans-serif" font-weight="400" font-size="13" transform="translate(692.038 591)">HarpRegister::<tspan font-size="13" x="26.4133" y="16">read</tspan></text><path d="M674.5 500.834C674.5 495.679 678.679 491.5 683.834 491.5L778.167 491.5C783.321 491.5 787.5 495.679 787.5 500.834L787.5 538.167C787.5 543.321 783.321 547.5 778.167 547.5L683.834 547.5C678.679 547.5 674.5 543.321 674.5 538.167Z" stroke="#ED7D31" stroke-width="1.33333" stroke-miterlimit="8" fill="#FFFFFF" fill-rule="evenodd"/><text fill="#ED7D31" font-family="Calibri,Calibri_MSFontService,sans-serif" font-weight="400" font-size="13" transform="translate(702.872 515)">harpsync<tspan font-size="13" x="48.8334" y="0">::</tspan><tspan font-size="13" x="15.58" y="16">read</tspan></text><path d="M674.5 653.834C674.5 648.679 678.679 644.5 683.834 644.5L778.167 644.5C783.321 644.5 787.5 648.679 787.5 653.834L787.5 691.167C787.5 696.321 783.321 700.5 778.167 700.5L683.834 700.5C678.679 700.5 674.5 696.321 674.5 691.167Z" stroke="#4472C4" stroke-width="1.33333" stroke-miterlimit="8" fill="#FFFFFF" fill-rule="evenodd"/><text fill="#4472C4" font-family="Calibri,Calibri_MSFontService,sans-serif" font-weight="400" font-size="13" transform="translate(696.367 668)">MyRegister<tspan font-size="13" x="61.5" y="0">::</tspan><tspan font-size="13" x="21.9133" y="16">read</tspan></text><path d="M806.5 653.833C806.5 648.679 810.679 644.5 815.833 644.5L911.167 644.5C916.321 644.5 920.5 648.679 920.5 653.833L920.5 691.167C920.5 696.321 916.321 700.5 911.167 700.5L815.833 700.5C810.679 700.5 806.5 696.321 806.5 691.167Z" stroke="#4472C4" stroke-width="1.33333" stroke-miterlimit="8" fill="#FFFFFF" fill-rule="evenodd"/><text fill="#4472C4" font-family="Calibri,Calibri_MSFontService,sans-serif" font-weight="400" font-size="13" transform="translate(834.15 668)">MyDriver<tspan font-size="13" x="50.5" y="0">::</tspan><tspan font-size="13" x="16.4133" y="16">read</tspan></text><path d="M730.833 643.398 730.833 631.167 732.167 631.167 732.167 643.398ZM727.5 632.5 731.5 624.5 735.5 632.5Z" fill="#4472C4"/><path d="M806.398 672.167 794.167 672.167 794.167 670.833 806.398 670.833ZM795.5 675.5 787.5 671.5 795.5 667.5Z" fill="#4472C4"/><path d="M787.5 518.833 857.254 518.833 857.254 520.167 787.5 520.167ZM855.921 515.5 863.921 519.5 855.921 523.5Z" fill="#ED7D31"/><path d="M864.506 454.833 951.064 455.643 951.051 456.977 864.494 456.167ZM949.761 452.298 957.724 456.372 949.687 460.297Z"/><path d="M787.5 595.5 865.216 596" stroke="#000000" stroke-width="1.33333" stroke-miterlimit="8" fill="none" fill-rule="evenodd"/><path d="M0 0 0.000104987 140.532" stroke="#000000" stroke-width="1.33333" stroke-miterlimit="8" fill="none" fill-rule="evenodd" transform="matrix(1 0 0 -1 865.5 596.032)"/><path d="M636.5 594.833 640.5 594.833 640.5 596.167 636.5 596.167ZM641.833 594.833 645.833 594.833 645.833 596.167 641.833 596.167ZM647.167 594.833 651.167 594.833 651.167 596.167 647.167 596.167ZM652.5 594.833 656.5 594.833 656.5 596.167 652.5 596.167ZM657.833 594.833 661.833 594.833 661.833 596.167 657.833 596.167ZM663.167 594.833 667.167 594.833 667.167 596.167 663.167 596.167ZM666.295 591.5 674.295 595.5 666.295 599.5Z"/><rect x="370.5" y="34.5001" width="758" height="442" stroke="#7F7F7F" stroke-width="1.33333" stroke-miterlimit="8" fill="none"/><text fill="#7F7F7F" font-family="Calibri,Calibri_MSFontService,sans-serif" font-weight="400" font-size="13" transform="translate(701.015 46)">HarpDevice<tspan font-size="13" x="62.5" y="0">::main</tspan><tspan fill="#000000" font-size="13" x="-321.164" y="37">RXQ</tspan><tspan fill="#000000" font-size="13" x="246.59" y="265">TXQ</tspan></text><path d="M351.5 410.833 382.629 410.833 382.629 412.167 351.5 412.167ZM381.295 407.5 389.295 411.5 381.295 415.5Z"/><path d="M86.5001 665.833C86.5001 662.336 89.3356 659.5 92.8335 659.5L160.167 659.5C163.664 659.5 166.5 662.336 166.5 665.833L166.5 691.167C166.5 694.664 163.664 697.5 160.167 697.5L92.8335 697.5C89.3356 697.5 86.5001 694.664 86.5001 691.167Z" stroke="#ED7D31" stroke-width="1.33333" stroke-miterlimit="8" fill="#FFFFFF" fill-rule="evenodd"/><text fill="#ED7D31" font-family="Calibri,Calibri_MSFontService,sans-serif" font-weight="400" font-size="13" transform="translate(91.1771 682)">micropython</text><path d="M86.5001 617.833C86.5001 614.336 89.3356 611.5 92.8335 611.5L160.167 611.5C163.664 611.5 166.5 614.336 166.5 617.833L166.5 643.167C166.5 646.664 163.664 649.5 160.167 649.5L92.8335 649.5C89.3356 649.5 86.5001 646.664 86.5001 643.167Z" stroke="#000000" stroke-width="1.33333" stroke-miterlimit="8" fill="#FFFFFF" fill-rule="evenodd"/><text font-family="Calibri,Calibri_MSFontService,sans-serif" font-weight="400" font-size="13" transform="translate(97.9271 634)">microharp</text><path d="M86.5001 569.833C86.5001 566.336 89.3356 563.5 92.8335 563.5L160.167 563.5C163.664 563.5 166.5 566.336 166.5 569.833L166.5 595.167C166.5 598.664 163.664 601.5 160.167 601.5L92.8335 601.5C89.3356 601.5 86.5001 598.664 86.5001 595.167Z" stroke="#4472C4" stroke-width="1.33333" stroke-miterlimit="8" fill="#FFFFFF" fill-rule="evenodd"/><text fill="#4472C4" font-family="Calibri,Calibri_MSFontService,sans-serif" font-weight="400" font-size="13" transform="translate(108.43 578)">device <tspan font-size="13" x="-12.42" y="16">application</tspan></text><path d="M184.5 592C184.5 574.051 199.275 559.5 217.5 559.5 235.725 559.5 250.5 574.051 250.5 592 250.5 609.949 235.725 624.5 217.5 624.5 199.275 624.5 184.5 609.949 184.5 592Z" stroke="#000000" stroke-width="1.33333" stroke-miterlimit="8" fill="#FFFFFF" fill-rule="evenodd"/><text font-family="Calibri,Calibri_MSFontService,sans-serif" font-weight="400" font-size="13" transform="translate(201.897 588)">async <tspan font-size="13" x="4.08667" y="16">task</tspan></text><path d="M184.5 668C184.5 650.051 199.051 635.5 217 635.5 234.949 635.5 249.5 650.051 249.5 668 249.5 685.949 234.949 700.5 217 700.5 199.051 700.5 184.5 685.949 184.5 668Z" stroke="#000000" stroke-width="1.33333" stroke-miterlimit="8" stroke-dasharray="4 1.33333" fill="#FFFFFF" fill-rule="evenodd"/><text font-family="Calibri,Calibri_MSFontService,sans-serif" font-weight="400" font-size="13" transform="translate(208.066 672)">ISR</text></g></svg>